<svg id="svg" version="1.1" xmlns="http://www.w3.org/2000/svg" xmlns:xlink="http://www.w3.org/1999/xlink" width="400" height="400" viewBox="0, 0, 400,400"><g id="svgg"><path id="path0" d="M198.730 56.135 C 199.214 56.228,200.005 56.228,200.488 56.135 C 200.972 56.042,200.576 55.966,199.609 55.966 C 198.643 55.966,198.247 56.042,198.730 56.135 M195.117 70.702 C 191.680 70.837,188.399 71.146,187.828 71.389 C 185.986 72.169,180.069 73.438,178.270 73.438 C 176.678 73.438,174.784 74.100,173.539 75.093 C 172.670 75.787,173.373 76.058,175.279 75.764 C 176.557 75.567,177.674 75.653,178.809 76.035 C 180.835 76.717,182.162 76.816,184.083 76.430 C 185.547 76.136,185.549 76.138,185.497 77.423 C 185.469 78.132,185.731 80.082,186.079 81.757 L 186.713 84.803 185.705 87.197 C 182.619 94.530,190.274 97.028,193.498 89.740 C 194.590 87.270,196.361 85.665,198.351 85.342 C 204.079 84.411,204.874 84.035,209.180 80.216 C 220.058 70.568,218.869 69.764,195.117 70.702 M166.035 77.350 C 164.576 77.694,163.530 78.760,163.972 79.452 C 164.124 79.689,164.250 80.762,164.253 81.836 C 164.258 83.768,164.277 83.798,166.037 84.640 C 167.205 85.199,168.072 85.967,168.564 86.881 L 169.313 88.271 167.664 89.951 C 165.694 91.959,165.688 91.998,167.224 92.792 C 168.428 93.415,168.937 93.313,168.954 92.448 C 168.959 92.197,169.310 92.059,169.735 92.140 C 171.394 92.456,171.671 92.339,172.286 91.059 C 172.636 90.331,173.390 89.491,173.961 89.191 C 174.533 88.892,175.000 88.490,175.000 88.299 C 175.000 88.108,175.604 87.752,176.343 87.508 C 180.578 86.110,180.423 83.681,175.931 81.049 C 175.021 80.515,173.955 79.677,173.564 79.185 C 171.846 77.031,169.657 76.498,166.035 77.350 M152.361 79.844 C 151.309 80.224,150.939 80.627,150.684 81.670 C 150.101 84.055,150.128 84.026,149.010 83.516 C 147.950 83.034,147.904 83.049,142.896 85.592 C 140.749 86.682,138.474 85.706,139.736 84.237 C 140.118 83.793,139.108 84.603,137.492 86.036 C 124.697 97.388,114.365 114.307,110.391 130.413 C 108.906 136.432,108.898 136.551,109.893 137.778 C 111.695 140.001,112.152 141.114,112.548 144.249 C 113.693 153.292,114.116 153.907,120.898 156.382 C 129.221 159.418,130.571 160.379,133.344 165.234 C 135.010 168.153,136.775 169.052,139.571 168.406 C 141.797 167.892,141.999 168.025,142.433 170.283 C 142.808 172.229,141.943 175.203,140.105 178.296 C 137.467 182.733,137.542 185.027,140.482 189.844 C 141.728 191.885,143.386 194.785,144.167 196.289 C 145.196 198.273,146.165 199.482,147.695 200.693 C 148.855 201.611,150.508 202.952,151.367 203.674 L 152.930 204.986 152.826 212.356 C 152.727 219.454,153.139 226.174,153.926 230.273 C 154.132 231.348,154.337 232.699,154.382 233.277 C 154.453 234.196,154.894 234.524,157.911 235.898 L 161.359 237.469 163.473 235.238 C 164.636 234.011,165.887 232.349,166.252 231.543 C 166.791 230.353,167.122 230.078,168.019 230.078 C 168.800 230.078,169.319 229.764,169.793 229.004 C 170.162 228.413,171.575 226.757,172.934 225.324 C 175.597 222.515,176.285 221.227,177.382 216.992 C 178.116 214.162,178.581 213.562,182.153 210.833 C 184.476 209.060,185.412 206.993,186.354 201.562 C 187.318 196.004,187.165 196.393,189.808 192.818 C 193.253 188.158,192.041 186.207,184.059 183.563 C 175.251 180.646,174.239 179.901,173.063 175.473 C 172.478 173.272,170.998 171.780,168.359 170.734 C 166.802 170.116,165.611 169.230,164.030 167.512 L 161.848 165.143 158.951 164.847 C 157.358 164.684,154.912 164.249,153.516 163.879 C 150.111 162.977,148.915 163.027,146.646 164.169 C 142.438 166.285,138.561 166.820,136.279 165.599 C 135.399 165.128,135.324 163.952,136.133 163.281 C 137.321 162.295,135.475 158.458,132.783 156.319 C 131.383 155.207,131.327 154.202,132.617 153.356 C 133.363 152.867,133.594 152.380,133.594 151.291 C 133.594 150.507,133.885 149.545,134.240 149.152 C 134.854 148.474,134.822 148.437,133.616 148.438 C 131.744 148.438,129.948 149.438,127.507 151.840 C 125.489 153.825,125.286 153.933,124.649 153.356 C 124.271 153.014,123.776 152.734,123.548 152.734 C 121.985 152.734,122.819 143.762,124.615 141.261 C 128.292 136.141,138.214 135.483,139.270 140.289 C 139.926 143.278,143.171 143.497,142.807 140.527 C 142.325 136.594,142.960 134.872,145.870 132.227 C 147.297 130.929,149.467 128.340,150.730 126.427 C 153.748 121.858,157.727 117.224,158.881 116.934 C 159.746 116.717,160.727 116.824,163.374 117.425 C 164.477 117.675,165.552 116.447,164.529 116.106 C 164.278 116.022,163.680 115.636,163.199 115.246 L 162.325 114.539 163.626 113.324 C 164.342 112.656,164.837 111.889,164.728 111.621 C 164.618 111.352,164.409 110.836,164.263 110.474 C 163.849 109.444,166.815 108.110,170.117 107.840 C 172.690 107.630,172.849 107.562,172.815 106.685 C 172.790 106.048,173.129 105.554,173.887 105.123 C 176.967 103.371,173.379 98.306,168.359 97.321 C 167.393 97.131,166.074 96.690,165.430 96.342 C 162.519 94.768,160.954 95.541,159.213 99.414 C 155.825 106.952,151.953 109.462,151.953 104.122 C 151.953 101.849,151.050 100.611,148.977 100.041 C 146.114 99.253,147.987 94.625,151.751 93.187 C 152.828 92.776,153.849 91.930,154.846 90.623 C 156.539 88.404,157.766 88.104,159.518 89.482 C 160.476 90.235,161.889 90.402,161.835 89.755 C 161.821 89.598,162.020 88.355,162.276 86.993 C 162.829 84.049,162.728 83.594,161.523 83.594 C 160.099 83.594,159.345 83.176,158.964 82.173 C 158.751 81.613,158.295 81.250,157.804 81.250 C 157.358 81.250,156.587 80.811,156.089 80.273 C 155.091 79.197,154.379 79.115,152.361 79.844 M244.531 84.256 C 244.209 84.371,242.715 85.655,241.211 87.109 C 239.707 88.564,237.949 89.920,237.305 90.123 C 236.530 90.367,235.735 91.133,234.961 92.383 C 233.745 94.346,233.710 94.584,233.625 101.585 C 233.558 107.060,229.494 107.600,227.636 102.381 C 226.214 98.388,223.225 97.079,222.206 100.004 C 221.954 100.726,221.205 101.483,220.182 102.047 C 218.504 102.973,217.056 105.099,217.910 105.384 C 218.157 105.466,218.359 106.023,218.359 106.620 C 218.359 108.633,219.768 109.877,221.714 109.586 L 223.393 109.334 224.472 111.538 C 225.066 112.750,225.955 114.059,226.448 114.447 C 226.941 114.834,227.344 115.326,227.344 115.539 C 227.344 116.635,222.392 118.532,220.273 118.247 C 217.826 117.919,216.996 118.852,217.113 121.801 C 217.164 123.099,217.026 124.272,216.806 124.408 C 215.139 125.438,217.453 127.439,219.931 127.110 C 222.122 126.820,223.215 127.370,222.834 128.571 C 222.552 129.458,222.999 129.481,225.543 128.709 C 228.000 127.964,228.516 127.509,228.516 126.088 C 228.516 125.450,228.870 124.478,229.303 123.927 C 230.010 123.028,230.030 122.860,229.498 122.272 C 228.313 120.962,230.884 117.880,232.382 118.816 C 233.027 119.218,233.285 119.188,233.896 118.635 C 234.697 117.910,235.547 117.754,235.547 118.331 C 235.547 119.025,236.781 119.922,237.736 119.922 C 239.074 119.922,239.428 121.139,238.797 123.573 C 237.770 127.530,238.418 128.288,241.207 126.395 C 241.975 125.874,243.126 125.332,243.763 125.192 C 245.122 124.894,245.237 124.157,244.141 122.763 C 242.632 120.845,243.643 118.859,245.506 120.080 C 246.044 120.433,246.484 120.855,246.484 121.019 C 246.484 121.516,248.545 122.568,250.086 122.857 C 252.417 123.294,254.794 126.101,254.189 127.702 C 253.587 129.299,253.199 129.223,253.051 127.480 C 252.917 125.902,251.675 124.696,250.000 124.518 C 248.350 124.342,248.516 126.046,250.339 127.994 L 251.861 129.622 254.349 129.407 C 257.245 129.157,258.264 128.738,257.951 127.924 C 257.609 127.032,258.669 127.223,260.156 128.320 C 261.658 129.429,262.500 129.569,262.500 128.711 C 262.500 128.000,263.808 127.934,264.374 128.615 C 265.434 129.892,265.345 131.216,264.104 132.629 C 263.437 133.389,262.891 134.175,262.891 134.375 C 262.891 135.389,261.343 135.512,258.374 134.735 C 250.547 132.685,247.288 132.916,249.898 135.336 L 250.969 136.328 249.897 136.328 C 249.308 136.328,248.169 135.977,247.368 135.547 C 246.566 135.117,245.370 134.766,244.709 134.766 C 243.016 134.766,242.381 134.147,241.085 131.231 C 239.473 127.608,237.847 126.719,234.782 127.787 C 233.794 128.131,233.442 128.121,233.207 127.740 C 232.830 127.130,228.543 128.464,225.586 130.112 C 224.363 130.793,222.728 131.300,221.214 131.468 C 218.340 131.787,217.472 132.464,216.176 135.393 C 215.673 136.531,214.406 138.407,213.361 139.561 C 208.962 144.418,208.176 146.330,208.248 151.998 C 208.274 154.014,208.088 156.426,207.835 157.357 C 207.206 159.667,207.555 160.861,209.639 163.535 C 210.619 164.792,211.863 166.750,212.404 167.886 C 214.806 172.932,218.968 174.016,227.441 171.800 C 230.766 170.931,232.220 171.062,232.534 172.261 C 232.709 172.929,233.064 173.047,234.901 173.047 C 237.642 173.047,237.695 173.144,237.695 178.125 C 237.695 182.119,237.733 182.293,239.120 184.766 C 241.918 189.752,242.381 193.245,240.980 198.785 L 240.163 202.016 241.350 206.379 C 242.002 208.779,242.728 212.148,242.962 213.867 C 243.196 215.586,244.012 219.014,244.774 221.484 C 245.537 223.955,246.228 226.196,246.310 226.465 C 246.532 227.187,247.595 227.058,248.722 226.172 C 249.268 225.742,250.208 225.391,250.811 225.391 C 251.414 225.391,252.010 225.223,252.137 225.019 C 252.263 224.814,253.987 223.424,255.968 221.929 C 262.269 217.174,265.481 211.562,262.838 209.928 C 261.836 209.309,262.707 207.853,265.961 204.711 C 271.968 198.907,272.584 197.601,271.692 192.558 C 270.405 185.282,270.936 183.076,275.053 178.579 C 277.287 176.139,278.676 174.160,280.032 171.484 C 281.066 169.443,282.472 166.777,283.156 165.558 C 283.840 164.340,284.263 163.261,284.095 163.161 C 283.637 162.890,277.447 161.792,275.056 161.559 C 272.387 161.299,272.004 160.951,271.665 158.484 C 271.448 156.913,270.873 155.712,269.089 153.112 C 266.782 149.748,264.063 143.925,264.063 142.348 C 264.063 141.882,263.691 141.255,263.236 140.953 C 262.757 140.634,262.470 140.100,262.553 139.680 C 262.761 138.624,264.814 140.822,266.401 143.800 C 267.079 145.072,268.056 146.389,268.572 146.727 C 269.162 147.114,269.599 147.871,269.751 148.768 C 270.152 151.144,272.362 157.573,273.018 158.272 C 274.091 159.415,280.156 159.433,280.659 158.295 C 281.138 157.211,281.873 157.166,282.144 158.203 C 282.434 159.310,283.086 159.171,283.765 157.858 C 284.086 157.239,284.760 156.629,285.263 156.502 C 285.794 156.369,286.505 155.652,286.954 154.796 C 287.415 153.919,288.065 153.272,288.557 153.200 C 289.382 153.080,290.757 150.708,291.755 147.682 C 292.299 146.031,291.953 145.743,289.710 145.977 C 286.562 146.306,282.319 142.926,281.097 139.117 C 279.986 135.655,281.295 135.995,282.813 139.563 C 284.277 143.005,285.733 143.811,287.830 142.342 C 288.551 141.837,289.026 141.792,290.269 142.107 L 291.813 142.499 291.563 140.488 C 289.398 123.053,281.236 106.651,267.063 91.249 L 264.582 88.554 263.345 89.467 C 262.666 89.970,262.109 90.612,262.109 90.894 C 262.109 91.581,261.149 91.545,260.559 90.835 C 260.299 90.521,259.706 90.146,259.242 90.001 C 258.778 89.857,257.821 89.235,257.115 88.619 C 256.410 88.004,255.581 87.500,255.273 87.500 C 254.966 87.500,254.113 86.972,253.379 86.327 C 251.072 84.302,247.042 83.358,244.531 84.256 M209.163 86.494 C 207.641 88.818,209.276 90.443,212.359 89.670 C 213.528 89.376,213.704 86.963,212.598 86.396 C 210.821 85.486,209.805 85.515,209.163 86.494 M247.078 90.649 C 247.266 91.242,247.604 91.422,248.366 91.332 C 249.923 91.150,249.977 92.374,248.437 92.911 C 247.263 93.320,247.228 93.399,247.342 95.397 L 247.461 97.461 248.926 97.582 C 251.640 97.807,250.090 100.187,246.981 100.570 C 245.956 100.696,244.062 100.942,242.773 101.116 C 238.513 101.693,235.742 101.193,235.742 99.847 C 235.742 98.375,236.728 97.722,237.958 98.380 C 238.458 98.648,239.387 99.149,240.023 99.493 C 240.658 99.838,241.800 100.137,242.560 100.158 L 243.941 100.195 244.334 95.842 C 244.784 90.847,246.256 88.061,247.078 90.649 M226.882 106.445 C 227.520 106.982,228.490 107.422,229.037 107.422 C 230.418 107.422,230.638 108.000,229.462 108.537 C 226.961 109.676,221.172 108.093,222.136 106.534 C 222.909 105.284,225.445 105.236,226.882 106.445 M171.331 110.193 C 170.648 110.730,170.313 111.371,170.313 112.138 L 170.313 113.281 172.949 113.275 C 176.099 113.268,176.667 112.981,176.496 111.481 C 176.386 110.518,176.195 110.350,175.195 110.342 C 174.551 110.337,173.647 110.121,173.186 109.862 C 172.485 109.468,172.184 109.522,171.331 110.193 M263.287 117.138 C 263.300 118.451,264.024 118.933,266.291 119.135 C 268.383 119.321,268.555 119.409,268.555 120.300 C 268.555 121.693,258.014 123.068,255.305 122.029 C 253.162 121.206,256.777 117.188,259.660 117.188 C 261.349 117.188,261.659 117.068,261.849 116.342 C 262.108 115.351,263.277 115.997,263.287 117.138 M140.234 148.510 C 142.430 149.126,144.177 149.957,146.682 151.576 C 151.309 154.567,154.582 154.938,152.672 152.256 C 151.636 150.801,149.937 150.064,147.652 150.079 C 146.552 150.087,145.098 149.711,143.750 149.073 C 142.568 148.513,140.986 148.071,140.234 148.091 L 138.867 148.127 140.234 148.510 M292.278 151.172 C 292.278 151.924,292.359 152.231,292.457 151.855 C 292.555 151.479,292.555 150.864,292.457 150.488 C 292.359 150.112,292.278 150.420,292.278 151.172 M292.299 156.055 C 292.302 157.129,292.378 157.522,292.468 156.928 C 292.558 156.334,292.555 155.456,292.462 154.975 C 292.370 154.495,292.296 154.980,292.299 156.055 M101.661 157.617 C 101.665 158.477,101.745 158.782,101.839 158.296 C 101.932 157.810,101.929 157.107,101.831 156.734 C 101.733 156.360,101.657 156.758,101.661 157.617 M279.883 197.418 C 279.238 197.699,277.744 199.118,276.563 200.570 C 275.381 202.022,273.931 203.786,273.340 204.489 C 272.076 205.993,271.910 208.068,272.950 209.353 C 273.629 210.191,273.659 210.161,276.810 205.392 C 282.483 196.806,282.726 196.175,279.883 197.418 M269.311 223.535 L 268.164 224.805 269.434 223.657 C 270.132 223.026,270.703 222.455,270.703 222.388 C 270.703 222.086,270.381 222.352,269.311 223.535 M198.730 252.236 C 199.429 252.322,200.571 252.322,201.270 252.236 C 201.968 252.149,201.396 252.078,200.000 252.078 C 198.604 252.078,198.032 252.149,198.730 252.236 M195.460 262.500 C 195.460 264.971,195.524 265.981,195.601 264.746 C 195.679 263.511,195.679 261.489,195.601 260.254 C 195.524 259.019,195.460 260.029,195.460 262.500 M248.979 262.891 C 248.979 265.576,249.041 266.675,249.117 265.332 C 249.194 263.989,249.194 261.792,249.117 260.449 C 249.041 259.106,248.979 260.205,248.979 262.891 M178.613 284.276 C 181.567 284.343,186.401 284.343,189.355 284.276 C 192.310 284.210,189.893 284.156,183.984 284.156 C 178.076 284.156,175.659 284.210,178.613 284.276 M240.750 288.672 C 240.750 290.068,240.821 290.640,240.908 289.941 C 240.994 289.243,240.994 288.101,240.908 287.402 C 240.821 286.704,240.750 287.275,240.750 288.672 M127.647 287.005 C 128.566 287.088,129.972 287.087,130.772 287.003 C 131.572 286.919,130.820 286.851,129.102 286.853 C 127.383 286.854,126.728 286.923,127.647 287.005 M196.244 297.656 C 196.244 300.342,196.307 301.440,196.383 300.098 C 196.459 298.755,196.459 296.558,196.383 295.215 C 196.307 293.872,196.244 294.971,196.244 297.656 M156.805 327.344 C 156.805 331.748,156.862 333.550,156.932 331.348 C 157.002 329.146,157.002 325.542,156.932 323.340 C 156.862 321.138,156.805 322.939,156.805 327.344 M255.253 332.422 C 255.253 339.619,255.306 342.563,255.370 338.965 C 255.435 335.366,255.435 329.478,255.370 325.879 C 255.306 322.280,255.253 325.225,255.253 332.422 M261.894 332.422 C 261.894 339.619,261.947 342.563,262.011 338.965 C 262.076 335.366,262.076 329.478,262.011 325.879 C 261.947 322.280,261.894 325.225,261.894 332.422 M319.231 337.109 C 319.231 337.861,319.312 338.169,319.410 337.793 C 319.508 337.417,319.508 336.802,319.410 336.426 C 319.312 336.050,319.231 336.357,319.231 337.109 M84.766 339.575 C 84.766 339.643,85.337 340.214,86.035 340.845 L 87.305 341.992 86.157 340.723 C 85.088 339.539,84.766 339.274,84.766 339.575 M308.301 345.592 C 308.892 345.682,309.858 345.682,310.449 345.592 C 311.040 345.503,310.557 345.430,309.375 345.430 C 308.193 345.430,307.710 345.503,308.301 345.592 " stroke="none" fill="#6bb479" fill-rule="evenodd"></path><path id="path1" d="M190.234 56.515 C 108.090 64.935,72.008 165.226,130.245 223.255 C 189.120 281.918,289.994 245.689,297.688 163.117 C 303.324 102.638,250.596 50.328,190.234 56.515 M210.547 62.546 C 264.303 68.445,301.983 121.070,290.228 173.828 C 272.586 253.004,167.870 272.433,122.849 204.883 C 79.415 139.715,132.254 53.954,210.547 62.546 M218.516 257.612 C 211.555 259.126,207.475 263.614,207.114 270.153 C 206.644 278.681,209.593 281.505,221.605 284.027 C 229.029 285.586,230.469 286.467,230.469 289.453 C 230.469 295.006,219.883 295.631,213.527 290.454 L 211.500 288.803 208.272 291.802 L 205.044 294.800 207.510 297.107 C 215.304 304.397,229.573 305.222,236.881 298.804 C 241.805 294.481,242.110 283.431,237.414 279.480 C 234.788 277.271,231.843 276.303,221.422 274.228 C 217.816 273.509,216.249 271.234,217.610 268.691 C 219.293 265.545,227.992 266.256,232.116 269.877 L 233.516 271.107 236.499 267.531 C 239.946 263.401,239.934 263.639,236.820 261.269 C 231.986 257.591,225.015 256.198,218.516 257.612 M116.016 280.273 L 116.016 302.344 121.094 302.344 L 126.172 302.344 126.172 294.531 L 126.172 286.719 129.075 286.719 C 132.527 286.719,131.810 285.943,137.289 295.605 L 141.110 302.344 146.727 302.344 C 149.816 302.344,152.344 302.268,152.344 302.176 C 152.344 302.084,150.302 298.471,147.807 294.147 C 145.312 289.824,143.335 286.252,143.413 286.210 C 143.491 286.167,144.257 285.781,145.115 285.352 C 154.278 280.763,153.815 264.632,144.394 260.201 C 140.825 258.522,137.959 258.203,126.433 258.203 L 116.016 258.203 116.016 280.273 M163.281 280.273 L 163.281 302.344 179.688 302.344 L 196.094 302.344 196.094 297.656 L 196.094 292.969 184.766 292.969 L 173.438 292.969 173.438 288.477 L 173.438 283.984 183.984 283.984 L 194.531 283.984 194.531 280.078 L 194.531 276.172 183.984 276.172 L 173.438 276.172 173.438 271.875 L 173.438 267.578 184.310 267.578 C 190.290 267.578,195.256 267.506,195.345 267.417 C 195.435 267.328,195.453 265.219,195.387 262.729 L 195.265 258.203 179.273 258.203 L 163.281 258.203 163.281 280.273 M249.219 262.891 L 249.219 267.578 255.664 267.578 L 262.109 267.578 262.109 284.961 L 262.109 302.344 266.992 302.344 L 271.875 302.344 271.875 284.971 L 271.875 267.597 278.223 267.490 L 284.570 267.383 284.680 262.793 L 284.790 258.203 267.005 258.203 L 249.219 258.203 249.219 262.891 M138.880 268.137 C 141.415 269.798,142.205 273.689,140.520 276.212 C 138.992 278.498,137.637 278.905,131.543 278.906 L 126.172 278.906 126.172 273.145 L 126.172 267.383 132.026 267.432 C 136.790 267.472,138.065 267.603,138.880 268.137 M256.037 310.334 C 253.842 312.528,255.430 316.122,258.594 316.122 C 259.962 316.122,260.480 315.914,261.205 315.071 C 264.017 311.801,259.087 307.283,256.037 310.334 M94.141 310.561 C 81.078 313.291,76.467 330.783,86.201 340.681 C 93.446 348.047,106.423 347.131,112.120 338.852 C 112.800 337.864,113.296 336.995,113.221 336.922 C 113.147 336.850,111.866 336.166,110.375 335.404 L 107.664 334.017 106.382 335.515 C 101.445 341.283,91.654 339.246,89.230 331.947 C 85.553 320.878,97.190 311.967,105.530 319.465 L 107.503 321.239 110.389 319.702 C 113.888 317.837,113.875 318.090,110.645 314.865 C 106.618 310.846,100.461 309.240,94.141 310.561 M214.844 316.211 L 214.844 319.531 212.695 319.531 L 210.547 319.531 210.547 322.422 L 210.547 325.313 212.695 325.183 L 214.844 325.053 214.846 332.156 C 214.849 341.756,215.515 343.679,219.348 345.143 C 221.963 346.141,228.528 345.043,228.510 343.610 C 228.489 342.011,227.074 338.747,226.547 339.081 C 225.511 339.735,223.099 339.505,222.266 338.672 C 221.549 337.956,221.484 337.370,221.484 331.641 L 221.484 325.391 224.609 325.391 L 227.734 325.391 227.734 322.461 L 227.734 319.531 224.609 319.531 L 221.484 319.531 221.484 316.211 L 221.484 312.891 218.164 312.891 L 214.844 312.891 214.844 316.211 M125.911 319.841 C 114.455 323.929,115.002 341.437,126.698 344.990 C 138.315 348.518,148.079 336.619,142.530 325.694 C 139.863 320.443,131.993 317.671,125.911 319.841 M192.418 319.732 C 191.578 320.053,190.304 320.763,189.586 321.310 L 188.281 322.305 188.281 320.918 L 188.281 319.531 185.156 319.531 L 182.031 319.531 182.031 332.422 L 182.031 345.313 185.135 345.313 L 188.239 345.313 188.358 336.688 L 188.477 328.063 189.910 326.751 C 191.681 325.129,193.710 324.680,195.880 325.430 C 198.588 326.366,198.827 327.306,198.828 337.012 L 198.828 345.313 202.177 345.313 L 205.526 345.313 205.400 335.059 C 205.256 323.391,205.097 322.708,202.022 320.536 C 200.038 319.134,195.075 318.719,192.418 319.732 M245.313 319.753 C 244.561 320.083,243.374 320.906,242.676 321.582 L 241.406 322.810 241.406 321.170 L 241.406 319.531 238.086 319.531 L 234.766 319.531 234.766 332.422 L 234.766 345.313 238.086 345.313 L 241.406 345.313 241.406 337.357 C 241.406 329.882,241.455 329.340,242.222 328.365 C 243.799 326.360,246.857 325.590,249.403 326.558 L 250.419 326.945 250.307 323.140 L 250.195 319.336 248.438 319.244 C 247.471 319.194,246.064 319.423,245.313 319.753 M277.734 319.483 C 263.341 324.211,266.435 345.807,281.499 345.765 C 285.432 345.754,288.670 344.758,291.181 342.787 C 291.911 342.214,291.891 342.135,290.477 340.083 L 289.021 337.969 286.754 339.138 C 281.807 341.689,276.569 340.104,275.214 335.645 L 274.947 334.766 284.380 334.766 L 293.812 334.766 293.559 332.129 C 292.661 322.759,285.408 316.963,277.734 319.483 M305.449 319.673 C 300.116 321.111,297.532 325.669,299.513 330.146 C 300.518 332.418,302.166 333.428,307.121 334.809 C 311.894 336.139,312.891 336.739,312.891 338.277 C 312.891 341.025,306.912 340.897,302.621 338.057 L 301.021 336.999 299.714 338.519 C 297.508 341.085,297.481 341.233,299.027 342.412 C 304.615 346.674,314.847 346.289,317.882 341.703 C 320.986 337.012,318.847 331.916,313.086 330.275 C 305.439 328.097,305.283 328.026,305.153 326.686 C 304.919 324.270,309.297 323.835,313.244 325.883 L 315.236 326.917 316.868 324.755 C 318.664 322.377,318.712 322.547,315.820 321.019 C 312.446 319.236,308.816 318.765,305.449 319.673 M150.000 329.052 C 150.000 339.261,150.253 340.956,152.064 342.898 C 155.214 346.275,162.022 346.451,165.527 343.246 L 166.406 342.442 166.406 343.877 L 166.406 345.313 170.117 345.313 L 173.828 345.313 173.828 332.422 L 173.828 319.531 170.117 319.531 L 166.406 319.531 166.406 328.072 C 166.406 337.748,166.276 338.212,163.298 339.104 C 158.015 340.687,156.641 338.200,156.641 327.053 L 156.641 319.531 153.320 319.531 L 150.000 319.531 150.000 329.052 M255.469 332.422 L 255.469 345.313 258.594 345.313 L 261.719 345.313 261.719 332.422 L 261.719 319.531 258.594 319.531 L 255.469 319.531 255.469 332.422 M284.204 325.405 C 285.277 326.069,287.109 328.847,287.109 329.811 C 287.109 329.958,284.382 330.078,281.049 330.078 L 274.990 330.078 275.596 328.628 C 277.126 324.964,281.089 323.481,284.204 325.405 M132.830 325.389 C 138.161 326.870,139.158 335.400,134.375 338.605 C 131.466 340.555,126.692 339.231,125.186 336.059 C 122.285 329.946,126.758 323.702,132.830 325.389 " stroke="none" fill="#333f47" fill-rule="evenodd"></path><path id="path2" d="M0.000 200.000 L 0.000 400.000 200.000 400.000 L 400.000 400.000 400.000 200.000 L 400.000 0.000 200.000 0.000 L 0.000 0.000 0.000 200.000 M212.500 56.876 C 287.894 66.531,324.227 155.805,276.949 215.234 C 226.571 278.560,123.844 256.449,104.538 178.125 C 87.884 110.557,143.546 48.045,212.500 56.876 M229.441 257.620 C 232.845 258.507,235.731 260.014,237.911 262.044 L 239.869 263.867 236.829 267.457 C 233.337 271.581,233.621 271.434,231.947 269.974 C 227.270 265.895,218.807 265.732,217.396 269.695 C 216.442 272.375,218.208 273.463,226.108 275.063 C 237.823 277.435,241.396 280.951,240.939 289.655 C 240.216 303.428,219.779 308.280,207.610 297.568 C 204.446 294.783,204.392 294.937,210.273 289.842 L 211.758 288.557 213.008 289.724 C 219.746 296.018,232.306 294.837,230.089 288.118 C 229.445 286.168,228.249 285.594,222.216 284.338 C 209.742 281.740,206.854 279.209,206.874 270.898 C 206.900 260.825,217.592 254.534,229.441 257.620 M140.301 258.645 C 153.116 261.393,156.532 279.666,145.297 285.359 L 143.427 286.307 147.885 294.012 C 150.338 298.250,152.344 301.859,152.344 302.031 C 152.344 302.203,149.751 302.336,146.582 302.327 L 140.820 302.309 136.549 294.709 L 132.278 287.109 129.225 287.109 L 126.172 287.109 126.172 294.727 L 126.172 302.344 121.094 302.344 L 116.016 302.344 116.016 280.273 L 116.016 258.203 127.129 258.203 C 133.917 258.203,139.044 258.375,140.301 258.645 M195.703 262.891 L 195.703 267.578 184.570 267.578 L 173.438 267.578 173.438 271.875 L 173.438 276.172 183.984 276.172 L 194.531 276.172 194.531 280.273 L 194.531 284.375 183.984 284.375 L 173.438 284.375 173.438 288.672 L 173.438 292.969 184.961 292.969 L 196.484 292.969 196.484 297.656 L 196.484 302.344 179.883 302.344 L 163.281 302.344 163.281 280.273 L 163.281 258.203 179.492 258.203 L 195.703 258.203 195.703 262.891 M284.766 262.891 L 284.766 267.578 278.320 267.578 L 271.875 267.578 271.875 284.961 L 271.875 302.344 266.992 302.344 L 262.109 302.344 262.109 284.961 L 262.109 267.578 255.469 267.578 L 248.828 267.578 248.828 262.891 L 248.828 258.203 266.797 258.203 L 284.766 258.203 284.766 262.891 M126.172 273.242 L 126.172 278.906 130.957 278.904 C 139.869 278.900,143.135 276.090,140.679 270.539 C 139.527 267.934,138.442 267.578,131.653 267.578 L 126.172 267.578 126.172 273.242 M261.151 310.334 C 262.769 311.953,262.438 314.843,260.519 315.835 C 256.608 317.857,253.055 313.487,255.981 310.254 C 257.131 308.983,259.842 309.025,261.151 310.334 M104.853 310.927 C 107.581 311.866,110.641 314.051,112.156 316.141 C 113.642 318.193,113.708 318.054,110.349 319.898 L 107.418 321.507 106.231 320.155 C 101.262 314.496,91.406 316.715,89.249 323.980 C 85.935 335.140,98.342 343.852,105.890 335.664 L 107.543 333.871 110.627 335.399 L 113.711 336.928 112.153 339.103 C 105.084 348.974,88.790 347.700,83.098 336.830 C 75.222 321.789,88.942 305.453,104.853 310.927 M221.484 316.211 L 221.484 319.531 224.609 319.531 L 227.734 319.531 227.734 322.461 L 227.734 325.391 224.609 325.391 L 221.484 325.391 221.484 331.232 C 221.484 338.917,222.344 340.444,225.908 339.088 C 226.511 338.859,227.068 338.672,227.146 338.672 C 227.224 338.672,227.567 339.632,227.909 340.806 C 228.250 341.979,228.626 343.193,228.745 343.502 C 229.337 345.045,221.211 346.397,218.828 345.152 C 215.360 343.340,214.844 341.739,214.844 332.787 L 214.844 325.391 212.695 325.391 L 210.547 325.391 210.547 322.461 L 210.547 319.531 212.724 319.531 L 214.901 319.531 214.775 316.210 L 214.648 312.889 218.066 312.890 L 221.484 312.891 221.484 316.211 M135.226 319.540 C 144.133 322.039,147.172 334.454,140.617 341.565 C 134.512 348.188,123.159 346.774,119.141 338.890 C 113.425 327.677,123.033 316.118,135.226 319.540 M200.610 319.569 C 204.699 320.817,205.469 323.325,205.469 335.410 L 205.469 345.313 201.971 345.313 L 198.474 345.313 198.525 340.137 C 198.637 328.560,198.569 327.806,197.296 326.532 C 195.304 324.541,191.150 325.078,189.264 327.570 C 188.809 328.171,188.694 330.007,188.684 336.816 L 188.672 345.313 185.156 345.313 L 181.641 345.313 181.641 332.422 L 181.641 319.531 185.156 319.531 L 188.672 319.531 188.672 320.723 L 188.672 321.915 189.941 320.967 C 192.636 318.954,196.806 318.408,200.610 319.569 M284.375 319.329 C 289.545 320.455,293.129 325.211,293.621 331.598 L 293.866 334.766 284.628 334.766 C 274.339 334.766,274.560 334.697,276.211 337.368 C 278.102 340.428,282.481 341.119,286.679 339.020 C 288.016 338.353,289.153 337.869,289.206 337.946 C 289.260 338.023,289.948 339.003,290.736 340.124 L 292.168 342.162 290.834 343.180 C 283.275 348.946,271.731 345.726,269.118 337.123 C 265.843 326.340,273.825 317.030,284.375 319.329 M250.391 323.089 C 250.391 326.691,250.331 327.013,249.707 326.766 C 246.952 325.677,243.437 326.557,242.156 328.658 C 241.487 329.755,241.409 330.691,241.408 337.598 L 241.406 345.313 238.086 345.313 L 234.766 345.313 234.766 332.422 L 234.766 319.531 238.086 319.531 L 241.406 319.531 241.406 321.146 L 241.406 322.762 242.181 321.776 C 243.375 320.259,245.987 319.141,248.340 319.141 L 250.391 319.141 250.391 323.089 M315.492 320.729 C 318.614 322.296,318.687 322.605,316.589 325.357 L 315.122 327.281 313.650 326.306 C 310.357 324.127,305.078 324.285,305.078 326.563 C 305.078 327.677,306.374 328.346,310.603 329.413 C 318.169 331.323,320.600 334.223,319.115 339.568 C 317.246 346.300,303.961 347.872,298.456 342.012 L 297.544 341.041 298.674 339.609 C 299.296 338.821,300.101 337.807,300.462 337.355 L 301.120 336.534 302.030 337.388 C 305.628 340.769,313.579 341.077,312.758 337.805 C 312.470 336.660,311.274 336.094,306.338 334.764 C 300.926 333.306,298.828 331.262,298.828 327.443 C 298.828 320.283,307.579 316.757,315.492 320.729 M157.031 327.716 C 157.031 337.869,157.444 338.977,161.281 339.128 C 165.881 339.308,166.406 338.142,166.406 327.754 L 166.406 319.531 170.215 319.531 L 174.023 319.531 173.915 332.422 L 173.807 345.313 170.107 345.313 L 166.406 345.313 166.406 344.157 L 166.406 343.001 164.388 344.254 C 161.515 346.039,156.678 346.104,153.773 344.397 C 150.315 342.364,150.008 341.143,150.004 329.395 L 150.000 319.531 153.516 319.531 L 157.031 319.531 157.031 327.716 M262.109 332.422 L 262.109 345.313 258.594 345.313 L 255.078 345.313 255.078 332.422 L 255.078 319.531 258.594 319.531 L 262.109 319.531 262.109 332.422 M279.082 325.138 C 277.272 325.958,274.812 329.240,275.496 329.923 C 275.593 330.020,278.249 330.051,281.399 329.991 L 287.125 329.883 286.238 328.148 C 284.717 325.172,281.758 323.927,279.082 325.138 M127.295 326.343 C 122.470 329.622,124.214 338.428,129.855 339.274 C 135.637 340.141,139.528 333.480,136.320 328.206 C 134.567 325.322,130.142 324.409,127.295 326.343 " stroke="none" fill="#fbfbed" fill-rule="evenodd"></path><path id="path3" d="M192.260 62.589 C 192.757 62.746,191.894 62.813,190.342 62.740 C 188.546 62.654,187.606 62.746,187.758 62.992 C 187.905 63.230,187.461 63.317,186.604 63.217 C 185.819 63.125,185.308 63.210,185.432 63.412 C 185.557 63.614,185.046 63.699,184.260 63.607 C 183.444 63.512,182.962 63.598,183.096 63.814 C 183.234 64.038,182.722 64.088,181.799 63.939 C 180.681 63.760,180.430 63.803,180.859 64.101 C 181.307 64.412,181.150 64.472,180.196 64.356 C 179.459 64.266,179.043 64.358,179.180 64.580 C 179.317 64.802,178.992 64.877,178.390 64.762 C 177.764 64.642,177.461 64.718,177.609 64.957 C 177.757 65.196,177.450 65.271,176.816 65.150 C 176.247 65.041,175.781 65.124,175.781 65.334 C 175.781 65.544,175.429 65.624,174.999 65.512 C 174.507 65.383,174.313 65.461,174.475 65.723 C 174.639 65.989,174.429 66.060,173.889 65.918 C 173.349 65.777,173.138 65.847,173.303 66.114 C 173.467 66.380,173.257 66.450,172.717 66.309 C 172.254 66.188,171.875 66.240,171.875 66.424 C 171.875 66.869,169.128 67.616,168.629 67.308 C 168.392 67.162,168.363 67.268,168.555 67.579 C 168.791 67.961,168.657 68.036,168.029 67.871 C 167.566 67.750,167.285 67.810,167.405 68.005 C 167.608 68.334,166.931 68.514,165.697 68.460 C 165.414 68.448,165.285 68.540,165.410 68.665 C 165.760 69.016,163.261 69.953,162.753 69.662 C 162.506 69.521,162.427 69.542,162.577 69.708 C 162.871 70.035,155.976 73.631,155.180 73.565 C 154.914 73.544,154.811 73.712,154.951 73.939 C 155.112 74.198,154.958 74.256,154.536 74.094 C 154.167 73.953,153.965 73.998,154.087 74.195 C 154.320 74.573,152.815 75.232,152.148 75.045 C 151.934 74.984,151.889 75.066,152.048 75.225 C 152.463 75.640,150.870 76.664,150.330 76.329 C 150.051 76.157,149.985 76.223,150.158 76.502 C 150.411 76.912,149.924 77.134,149.092 76.990 C 148.915 76.959,148.881 77.114,149.017 77.334 C 149.244 77.700,148.718 77.910,147.920 77.771 C 147.743 77.740,147.710 77.895,147.846 78.115 C 147.982 78.335,147.907 78.538,147.679 78.564 C 147.452 78.591,147.104 78.635,146.908 78.662 C 146.711 78.689,146.403 78.871,146.224 79.067 C 146.033 79.276,146.140 79.304,146.484 79.135 C 146.807 78.977,146.737 79.119,146.329 79.451 C 145.922 79.782,145.411 79.944,145.195 79.810 C 144.978 79.676,144.915 79.751,145.055 79.977 C 145.295 80.366,144.275 81.053,143.652 80.921 C 143.491 80.887,143.403 81.014,143.457 81.203 C 143.511 81.391,142.542 82.335,141.305 83.301 C 139.633 84.605,139.182 85.153,139.548 85.436 C 140.605 86.254,141.508 86.296,142.896 85.592 C 147.875 83.064,147.956 83.036,148.983 83.504 C 150.120 84.022,150.220 83.923,150.599 81.902 C 151.041 79.550,154.445 78.500,156.042 80.223 C 156.566 80.788,157.358 81.250,157.804 81.250 C 158.295 81.250,158.751 81.613,158.964 82.173 C 159.345 83.176,160.099 83.594,161.523 83.594 C 162.734 83.594,162.830 84.047,162.260 87.082 C 161.994 88.493,161.773 89.736,161.769 89.844 C 161.744 90.404,160.419 90.191,159.518 89.482 C 157.766 88.104,156.539 88.404,154.846 90.623 C 153.849 91.930,152.828 92.776,151.751 93.187 C 147.987 94.625,146.114 99.253,148.977 100.041 C 151.050 100.611,151.953 101.849,151.953 104.122 C 151.953 109.462,155.825 106.952,159.213 99.414 C 160.983 95.476,162.503 94.768,165.631 96.424 C 166.380 96.821,167.686 97.255,168.534 97.389 C 173.259 98.135,176.907 103.405,173.887 105.123 C 173.129 105.554,172.790 106.048,172.815 106.685 C 172.849 107.562,172.690 107.630,170.117 107.840 C 166.999 108.095,163.850 109.450,164.225 110.376 C 164.351 110.685,164.560 111.201,164.690 111.523 C 164.838 111.888,164.436 112.567,163.626 113.324 L 162.325 114.539 163.199 115.246 C 163.680 115.636,164.278 116.022,164.529 116.106 C 165.552 116.447,164.477 117.675,163.374 117.425 C 160.727 116.824,159.746 116.717,158.881 116.934 C 157.727 117.224,153.748 121.858,150.730 126.427 C 149.467 128.340,147.297 130.929,145.870 132.227 C 142.960 134.872,142.325 136.594,142.807 140.527 C 143.171 143.497,139.926 143.278,139.270 140.289 C 138.214 135.483,128.292 136.141,124.615 141.261 C 122.819 143.762,121.985 152.734,123.548 152.734 C 123.776 152.734,124.271 153.014,124.649 153.356 C 125.286 153.933,125.489 153.825,127.507 151.840 C 129.948 149.438,131.744 148.438,133.616 148.438 C 134.822 148.437,134.854 148.474,134.240 149.152 C 133.885 149.545,133.594 150.507,133.594 151.291 C 133.594 152.380,133.363 152.867,132.617 153.356 C 131.327 154.202,131.383 155.207,132.783 156.319 C 135.475 158.458,137.321 162.295,136.133 163.281 C 135.324 163.952,135.399 165.128,136.279 165.599 C 138.561 166.820,142.438 166.285,146.646 164.169 C 148.915 163.027,150.111 162.977,153.516 163.879 C 154.912 164.249,157.358 164.684,158.951 164.847 L 161.848 165.143 164.030 167.512 C 165.611 169.230,166.802 170.116,168.359 170.734 C 170.998 171.780,172.478 173.272,173.063 175.473 C 174.239 179.901,175.251 180.646,184.059 183.563 C 192.041 186.207,193.253 188.158,189.808 192.818 C 187.165 196.393,187.318 196.004,186.354 201.562 C 185.412 206.993,184.476 209.060,182.153 210.833 C 178.581 213.562,178.116 214.162,177.382 216.992 C 176.285 221.227,175.597 222.515,172.934 225.324 C 171.575 226.757,170.162 228.413,169.793 229.004 C 169.319 229.764,168.800 230.078,168.019 230.078 C 167.122 230.078,166.791 230.353,166.252 231.543 C 165.887 232.349,164.658 233.989,163.521 235.187 L 161.455 237.367 163.146 237.866 C 164.077 238.141,164.753 238.503,164.650 238.670 C 164.546 238.837,164.679 238.966,164.946 238.957 C 166.282 238.909,166.823 239.095,166.564 239.513 C 166.404 239.773,166.456 239.859,166.688 239.716 C 167.120 239.449,171.258 240.720,170.954 241.027 C 170.854 241.128,171.320 241.231,171.989 241.257 C 172.659 241.282,173.268 241.483,173.341 241.703 C 173.415 241.924,173.846 242.008,174.299 241.889 C 174.909 241.729,175.040 241.806,174.805 242.186 C 174.604 242.512,174.642 242.604,174.907 242.440 C 175.436 242.114,179.364 242.934,179.125 243.322 C 179.027 243.479,179.491 243.529,180.154 243.432 C 180.891 243.323,181.268 243.405,181.122 243.641 C 180.977 243.875,181.287 243.951,181.906 243.832 C 182.508 243.717,182.833 243.792,182.696 244.013 C 182.559 244.235,182.936 244.321,183.614 244.221 C 184.248 244.128,184.766 244.212,184.766 244.408 C 184.766 244.605,185.405 244.690,186.186 244.599 C 186.967 244.508,187.510 244.590,187.391 244.782 C 187.272 244.974,187.863 245.066,188.705 244.986 C 189.546 244.905,190.234 244.990,190.234 245.174 C 190.234 245.358,191.772 245.475,193.652 245.434 C 195.725 245.389,196.609 245.472,195.898 245.643 C 195.208 245.809,196.653 245.928,199.414 245.931 C 202.202 245.934,203.627 245.819,202.930 245.649 C 202.217 245.474,203.158 245.390,205.334 245.435 C 207.348 245.476,208.816 245.356,208.695 245.160 C 208.574 244.964,209.373 244.897,210.523 245.008 C 211.829 245.133,212.378 245.074,212.045 244.845 C 211.700 244.607,212.074 244.528,213.151 244.613 C 214.046 244.683,214.681 244.584,214.562 244.392 C 214.444 244.200,214.986 244.117,215.767 244.209 C 216.548 244.300,217.188 244.213,217.188 244.017 C 217.188 243.820,217.627 243.743,218.164 243.846 C 218.701 243.948,219.141 243.860,219.141 243.650 C 219.141 243.440,219.575 243.351,220.105 243.453 C 220.689 243.564,220.975 243.483,220.829 243.246 C 220.681 243.007,220.984 242.931,221.610 243.051 C 222.236 243.171,222.539 243.095,222.391 242.856 C 222.243 242.617,222.546 242.541,223.172 242.660 C 223.798 242.780,224.101 242.704,223.954 242.465 C 223.806 242.226,224.109 242.150,224.735 242.270 C 225.368 242.391,225.665 242.315,225.513 242.070 C 225.363 241.827,225.595 241.759,226.111 241.894 C 226.575 242.015,226.869 241.977,226.765 241.808 C 226.520 241.413,228.856 240.938,229.397 241.273 C 229.655 241.432,229.690 241.336,229.491 241.014 C 229.255 240.633,229.390 240.558,230.018 240.722 C 230.481 240.844,230.779 240.811,230.679 240.650 C 230.440 240.263,233.220 239.418,233.719 239.726 C 233.935 239.859,233.982 239.766,233.826 239.513 C 233.567 239.094,234.111 238.908,235.449 238.958 C 235.718 238.968,235.938 238.801,235.938 238.587 C 235.938 238.373,236.210 238.302,236.544 238.430 C 236.940 238.582,237.053 238.506,236.870 238.210 C 236.677 237.898,236.818 237.845,237.326 238.040 C 237.731 238.195,237.936 238.197,237.783 238.043 C 237.403 237.663,240.598 236.266,241.116 236.585 C 241.375 236.746,241.409 236.649,241.207 236.322 C 240.973 235.943,241.067 235.874,241.558 236.062 C 242.009 236.235,242.137 236.172,241.948 235.867 C 241.760 235.562,241.887 235.498,242.339 235.671 C 242.791 235.845,242.918 235.781,242.730 235.476 C 242.541 235.171,242.669 235.107,243.120 235.281 C 243.572 235.454,243.699 235.390,243.511 235.085 C 243.322 234.780,243.450 234.717,243.902 234.890 C 244.353 235.063,244.481 235.000,244.292 234.695 C 244.099 234.382,244.240 234.329,244.748 234.525 C 245.153 234.680,245.358 234.681,245.204 234.527 C 244.801 234.124,247.223 232.744,247.777 233.062 C 248.033 233.208,248.111 233.184,247.952 233.008 C 247.549 232.564,249.115 231.531,249.670 231.874 C 249.949 232.046,250.015 231.980,249.842 231.701 C 249.579 231.275,250.104 231.060,250.977 231.236 C 251.191 231.280,251.234 231.182,251.071 231.019 C 250.688 230.636,252.761 229.267,253.259 229.575 C 253.466 229.703,253.511 229.605,253.358 229.357 C 253.105 228.948,253.591 228.725,254.424 228.870 C 254.601 228.900,254.646 228.764,254.523 228.566 C 254.300 228.205,255.386 227.548,255.986 227.682 C 256.163 227.721,256.202 227.582,256.073 227.373 C 255.783 226.905,257.199 226.091,257.628 226.479 C 257.799 226.632,257.817 226.547,257.669 226.289 C 257.409 225.837,258.850 224.741,259.473 224.917 C 259.634 224.963,259.722 224.859,259.668 224.687 C 259.614 224.514,260.229 223.793,261.035 223.084 C 261.841 222.374,262.500 221.922,262.500 222.078 C 262.500 222.234,262.762 222.144,263.082 221.879 C 263.402 221.613,263.588 221.274,263.496 221.125 C 263.276 220.770,267.131 216.992,267.713 216.992 C 267.961 216.992,268.166 216.816,268.169 216.602 C 268.179 215.935,270.027 213.691,270.384 213.912 C 270.570 214.027,270.681 213.976,270.630 213.799 C 270.453 213.184,271.526 211.698,271.955 211.963 C 272.192 212.110,272.277 212.054,272.144 211.838 C 272.011 211.623,272.225 211.100,272.619 210.677 C 273.239 210.011,273.263 209.809,272.801 209.176 C 271.859 207.888,272.147 205.953,273.535 204.241 C 278.181 198.508,279.032 197.650,280.499 197.210 C 281.328 196.962,281.913 196.609,281.800 196.426 C 281.687 196.243,281.791 196.094,282.031 196.094 C 282.271 196.094,282.359 195.918,282.227 195.703 C 282.094 195.488,282.182 195.313,282.422 195.313 C 282.662 195.313,282.760 195.153,282.639 194.957 C 282.329 194.455,282.823 193.320,283.240 193.577 C 283.429 193.695,283.469 193.489,283.328 193.120 C 283.154 192.669,283.218 192.541,283.523 192.730 C 283.828 192.918,283.892 192.791,283.718 192.339 C 283.556 191.917,283.614 191.763,283.874 191.924 C 284.101 192.064,284.279 191.961,284.269 191.695 C 284.224 190.442,284.409 189.819,284.761 190.036 C 284.991 190.178,285.043 190.003,284.890 189.605 C 284.702 189.114,284.771 189.020,285.150 189.254 C 285.495 189.467,285.574 189.423,285.387 189.121 C 285.060 188.590,285.945 185.896,286.363 186.154 C 286.518 186.250,286.547 185.950,286.425 185.486 C 286.284 184.946,286.354 184.736,286.621 184.900 C 286.887 185.065,286.957 184.855,286.816 184.314 C 286.675 183.774,286.745 183.564,287.011 183.729 C 287.278 183.893,287.348 183.683,287.207 183.143 C 287.065 182.602,287.136 182.392,287.402 182.557 C 287.668 182.721,287.739 182.511,287.597 181.971 C 287.456 181.431,287.526 181.220,287.793 181.385 C 288.059 181.549,288.129 181.339,287.988 180.799 C 287.853 180.282,287.921 180.051,288.163 180.201 C 288.408 180.352,288.485 180.056,288.363 179.422 C 288.244 178.796,288.320 178.493,288.559 178.641 C 288.798 178.789,288.874 178.486,288.754 177.860 C 288.629 177.204,288.706 176.928,288.969 177.091 C 289.225 177.249,289.303 177.050,289.176 176.563 C 289.063 176.133,289.143 175.781,289.353 175.781 C 289.564 175.781,289.646 175.316,289.538 174.747 C 289.416 174.112,289.491 173.805,289.731 173.954 C 289.967 174.100,290.049 173.814,289.937 173.230 C 289.836 172.700,289.919 172.266,290.121 172.266 C 290.324 172.266,290.409 171.713,290.310 171.038 C 290.204 170.316,290.283 169.906,290.502 170.041 C 290.719 170.175,290.804 169.790,290.705 169.120 C 290.612 168.487,290.693 167.969,290.884 167.969 C 291.075 167.969,291.162 167.242,291.078 166.355 C 290.987 165.402,291.075 164.834,291.293 164.969 C 291.516 165.107,291.601 164.310,291.508 162.970 C 291.386 161.222,291.451 160.868,291.807 161.328 C 292.192 161.825,292.226 161.806,292.029 161.199 C 291.901 160.805,291.779 157.641,291.758 154.167 C 291.737 150.694,291.595 148.203,291.444 148.633 C 290.526 151.245,289.375 153.082,288.585 153.196 C 288.061 153.272,287.429 153.893,286.954 154.796 C 286.505 155.652,285.794 156.369,285.263 156.502 C 284.760 156.629,284.086 157.239,283.765 157.858 C 283.086 159.171,282.434 159.310,282.144 158.203 C 281.873 157.166,281.138 157.211,280.659 158.295 C 280.192 159.353,274.181 159.407,273.015 158.364 C 272.675 158.060,272.258 157.943,272.088 158.105 C 271.917 158.266,271.907 157.981,272.064 157.471 C 272.268 156.805,272.219 156.623,271.889 156.827 C 270.089 157.940,272.310 161.290,275.024 161.555 C 277.443 161.792,283.635 162.888,284.095 163.161 C 284.263 163.261,283.840 164.340,283.156 165.558 C 282.472 166.777,281.066 169.443,280.032 171.484 C 278.676 174.160,277.287 176.139,275.053 178.579 C 270.936 183.076,270.405 185.282,271.692 192.558 C 272.584 197.601,271.968 198.907,265.961 204.711 C 262.707 207.853,261.836 209.309,262.838 209.928 C 265.481 211.562,262.269 217.174,255.968 221.929 C 253.987 223.424,252.263 224.814,252.137 225.019 C 252.010 225.223,251.414 225.391,250.811 225.391 C 250.208 225.391,249.268 225.742,248.722 226.172 C 247.595 227.058,246.532 227.187,246.310 226.465 C 246.228 226.196,245.537 223.955,244.774 221.484 C 244.012 219.014,243.196 215.586,242.962 213.867 C 242.728 212.148,242.002 208.779,241.350 206.379 L 240.163 202.016 240.980 198.785 C 242.381 193.245,241.918 189.752,239.120 184.766 C 237.733 182.293,237.695 182.119,237.695 178.125 C 237.695 173.144,237.642 173.047,234.901 173.047 C 233.064 173.047,232.709 172.929,232.534 172.261 C 232.220 171.062,230.766 170.931,227.441 171.800 C 218.968 174.016,214.806 172.932,212.404 167.886 C 211.863 166.750,210.619 164.792,209.639 163.535 C 207.555 160.861,207.206 159.667,207.835 157.357 C 208.088 156.426,208.274 154.014,208.248 151.998 C 208.176 146.330,208.962 144.418,213.361 139.561 C 214.406 138.407,215.673 136.531,216.176 135.393 C 217.472 132.464,218.340 131.787,221.214 131.468 C 222.728 131.300,224.363 130.793,225.586 130.112 C 228.543 128.464,232.830 127.130,233.207 127.740 C 233.442 128.121,233.794 128.131,234.782 127.787 C 237.847 126.719,239.473 127.608,241.085 131.231 C 242.381 134.147,243.016 134.766,244.709 134.766 C 245.370 134.766,246.566 135.117,247.368 135.547 C 248.169 135.977,249.308 136.328,249.897 136.328 L 250.969 136.328 249.898 135.336 C 247.288 132.916,250.547 132.685,258.374 134.735 C 261.343 135.512,262.891 135.389,262.891 134.375 C 262.891 134.175,263.437 133.389,264.104 132.629 C 265.345 131.216,265.434 129.892,264.374 128.615 C 263.808 127.934,262.500 128.000,262.500 128.711 C 262.500 129.569,261.658 129.429,260.156 128.320 C 258.669 127.223,257.609 127.032,257.951 127.924 C 258.264 128.738,257.245 129.157,254.349 129.407 L 251.861 129.622 250.339 127.994 C 248.516 126.046,248.350 124.342,250.000 124.518 C 251.675 124.696,252.917 125.902,253.051 127.480 C 253.199 129.223,253.587 129.299,254.189 127.702 C 254.794 126.101,252.417 123.294,250.086 122.857 C 248.545 122.568,246.484 121.516,246.484 121.019 C 246.484 120.855,246.044 120.433,245.506 120.080 C 243.643 118.859,242.632 120.845,244.141 122.763 C 245.237 124.157,245.122 124.894,243.763 125.192 C 243.126 125.332,241.975 125.874,241.207 126.395 C 238.418 128.288,237.770 127.530,238.797 123.573 C 239.428 121.139,239.074 119.922,237.736 119.922 C 236.781 119.922,235.547 119.025,235.547 118.331 C 235.547 117.754,234.697 117.910,233.896 118.635 C 233.285 119.188,233.027 119.218,232.382 118.816 C 230.884 117.880,228.313 120.962,229.498 122.272 C 230.030 122.860,230.010 123.028,229.303 123.927 C 228.870 124.478,228.516 125.462,228.516 126.114 C 228.516 126.855,228.224 127.504,227.737 127.845 C 227.309 128.145,227.049 128.481,227.160 128.593 C 227.272 128.704,226.875 128.793,226.279 128.790 C 225.683 128.787,224.604 128.926,223.881 129.098 C 222.681 129.385,222.588 129.345,222.816 128.629 C 223.217 127.365,222.169 126.813,219.931 127.110 C 217.453 127.439,215.139 125.438,216.806 124.408 C 217.026 124.272,217.164 123.099,217.113 121.801 C 216.996 118.852,217.826 117.919,220.273 118.247 C 222.392 118.532,227.344 116.635,227.344 115.539 C 227.344 115.326,226.941 114.834,226.448 114.447 C 225.955 114.059,225.066 112.750,224.472 111.538 L 223.393 109.334 221.714 109.586 C 219.768 109.877,218.359 108.633,218.359 106.620 C 218.359 106.023,218.157 105.466,217.910 105.384 C 217.056 105.099,218.504 102.973,220.182 102.047 C 221.205 101.483,221.954 100.726,222.206 100.004 C 223.225 97.079,226.214 98.388,227.636 102.381 C 229.494 107.600,233.558 107.060,233.625 101.585 C 233.710 94.584,233.745 94.346,234.961 92.383 C 235.735 91.133,236.530 90.367,237.305 90.123 C 237.949 89.920,239.744 88.511,241.292 86.993 C 245.276 83.086,249.154 82.815,253.161 86.163 C 254.041 86.898,255.002 87.500,255.297 87.500 C 255.591 87.500,256.410 88.004,257.115 88.619 C 257.821 89.235,258.778 89.857,259.242 90.001 C 259.706 90.146,260.299 90.521,260.559 90.835 C 261.276 91.699,261.996 91.522,262.274 90.414 C 262.411 89.868,262.674 89.514,262.858 89.628 C 263.656 90.121,264.211 88.652,263.486 87.969 C 262.972 87.485,262.869 87.464,263.106 87.891 C 263.386 88.394,263.339 88.402,262.775 87.944 C 262.413 87.651,262.232 87.212,262.372 86.967 C 262.511 86.723,262.481 86.654,262.306 86.813 C 261.894 87.185,260.875 86.354,261.166 85.884 C 261.287 85.688,261.161 85.576,260.887 85.635 C 260.612 85.694,260.379 85.479,260.369 85.156 C 260.360 84.834,260.176 84.566,259.961 84.560 C 259.246 84.542,257.425 83.123,257.650 82.760 C 257.771 82.563,257.726 82.444,257.549 82.495 C 256.974 82.660,255.440 81.613,255.682 81.221 C 255.812 81.011,255.773 80.872,255.595 80.912 C 254.995 81.045,253.909 80.389,254.133 80.028 C 254.255 79.830,254.210 79.700,254.033 79.740 C 253.392 79.883,252.354 79.205,252.602 78.805 C 252.741 78.579,252.684 78.500,252.476 78.629 C 251.978 78.937,248.735 76.786,249.119 76.402 C 249.281 76.240,249.238 76.142,249.023 76.186 C 248.151 76.362,247.626 76.146,247.889 75.721 C 248.061 75.442,247.996 75.376,247.717 75.548 C 247.162 75.891,245.596 74.858,245.999 74.414 C 246.158 74.238,246.080 74.213,245.824 74.360 C 245.270 74.678,242.848 73.298,243.251 72.895 C 243.405 72.741,243.200 72.742,242.795 72.897 C 242.287 73.092,242.146 73.040,242.339 72.727 C 242.528 72.422,242.400 72.358,241.948 72.532 C 241.497 72.705,241.369 72.641,241.558 72.336 C 241.746 72.032,241.619 71.968,241.167 72.141 C 240.715 72.315,240.588 72.251,240.777 71.946 C 240.965 71.641,240.838 71.577,240.386 71.751 C 239.934 71.924,239.807 71.860,239.995 71.555 C 240.184 71.250,240.056 71.187,239.605 71.360 C 239.153 71.533,239.026 71.470,239.214 71.165 C 239.403 70.860,239.275 70.796,238.823 70.969 C 238.372 71.143,238.244 71.079,238.433 70.774 C 238.621 70.469,238.494 70.405,238.042 70.579 C 237.551 70.767,237.457 70.697,237.692 70.319 C 237.892 69.995,237.859 69.895,237.605 70.052 C 237.087 70.373,234.703 69.558,234.957 69.147 C 235.062 68.977,234.930 68.846,234.664 68.856 C 233.410 68.901,232.787 68.716,233.005 68.364 C 233.142 68.142,232.985 68.077,232.637 68.210 C 232.303 68.339,232.031 68.239,232.031 67.987 C 232.031 67.737,231.887 67.621,231.711 67.730 C 231.280 67.996,226.874 66.615,227.180 66.309 C 227.313 66.177,227.025 66.172,226.540 66.299 C 225.995 66.442,225.752 66.379,225.904 66.134 C 226.055 65.888,225.759 65.812,225.125 65.933 C 224.469 66.059,224.194 65.982,224.357 65.718 C 224.518 65.458,224.302 65.388,223.768 65.528 C 223.251 65.663,223.019 65.595,223.169 65.352 C 223.321 65.107,223.025 65.031,222.391 65.152 C 221.765 65.272,221.462 65.196,221.610 64.957 C 221.756 64.720,221.471 64.639,220.887 64.750 C 220.356 64.852,219.922 64.763,219.922 64.553 C 219.922 64.343,219.456 64.260,218.887 64.369 C 218.228 64.495,217.944 64.419,218.104 64.159 C 218.257 63.912,217.935 63.767,217.283 63.790 C 214.726 63.880,213.086 63.660,213.652 63.302 C 214.017 63.071,213.617 63.025,212.518 63.172 C 211.349 63.329,210.899 63.268,211.079 62.978 C 211.260 62.685,210.647 62.616,209.088 62.754 C 207.849 62.864,207.039 62.807,207.286 62.629 C 207.534 62.451,204.051 62.305,199.547 62.305 C 195.042 62.305,191.763 62.433,192.260 62.589 M213.634 70.823 C 216.259 71.743,216.236 73.612,213.569 76.190 C 205.983 83.526,204.670 84.315,198.351 85.342 C 196.361 85.665,194.590 87.270,193.498 89.740 C 190.274 97.028,182.619 94.530,185.705 87.197 L 186.713 84.803 186.079 81.757 C 185.731 80.082,185.469 78.132,185.497 77.423 C 185.549 76.138,185.547 76.136,184.083 76.430 C 182.237 76.801,180.250 76.682,179.237 76.140 C 178.807 75.909,178.216 75.813,177.924 75.925 C 177.633 76.036,177.339 75.981,177.271 75.802 C 177.204 75.623,176.307 75.606,175.279 75.764 C 173.373 76.058,172.670 75.787,173.539 75.093 C 174.784 74.100,176.678 73.438,178.270 73.438 C 180.069 73.438,185.986 72.169,187.828 71.389 C 189.851 70.531,211.452 70.058,213.634 70.823 M171.886 77.628 C 172.417 77.999,173.229 78.746,173.691 79.288 C 174.534 80.279,176.953 81.885,176.953 81.454 C 176.953 80.971,179.204 83.829,179.453 84.629 C 179.762 85.617,178.481 86.802,176.343 87.508 C 175.604 87.752,175.000 88.108,175.000 88.299 C 175.000 88.490,174.533 88.892,173.961 89.191 C 173.390 89.491,172.636 90.331,172.286 91.059 C 171.671 92.339,171.394 92.456,169.735 92.140 C 169.310 92.059,168.959 92.197,168.954 92.448 C 168.937 93.313,168.428 93.415,167.224 92.792 C 165.688 91.998,165.694 91.959,167.664 89.951 L 169.313 88.271 168.564 86.881 C 168.072 85.967,167.205 85.199,166.037 84.640 C 164.277 83.798,164.258 83.768,164.253 81.836 C 164.250 80.762,164.124 79.689,163.972 79.452 C 162.795 77.611,169.612 76.039,171.886 77.628 M212.598 86.396 C 213.704 86.963,213.528 89.376,212.359 89.670 C 209.276 90.443,207.641 88.818,209.163 86.494 C 209.805 85.515,210.821 85.486,212.598 86.396 M245.471 90.666 C 244.898 91.299,244.636 92.490,244.334 95.842 L 243.941 100.195 242.560 100.158 C 241.800 100.137,240.658 99.838,240.023 99.493 C 239.387 99.149,238.458 98.648,237.958 98.380 C 236.728 97.722,235.742 98.375,235.742 99.847 C 235.742 101.193,238.513 101.693,242.773 101.116 C 244.062 100.942,245.956 100.696,246.981 100.570 C 250.090 100.187,251.640 97.807,248.926 97.582 L 247.461 97.461 247.342 95.397 C 247.228 93.399,247.263 93.320,248.437 92.911 C 249.977 92.374,249.923 91.150,248.366 91.332 C 247.604 91.422,247.266 91.242,247.078 90.649 C 246.755 89.631,246.404 89.635,245.471 90.666 M223.185 105.857 C 221.334 106.603,221.809 107.726,224.288 108.468 C 226.388 109.095,228.182 109.119,229.462 108.537 C 230.638 108.000,230.418 107.422,229.037 107.422 C 228.490 107.422,227.520 106.982,226.882 106.445 C 225.684 105.437,224.637 105.271,223.185 105.857 M175.195 110.342 C 176.195 110.350,176.386 110.518,176.496 111.481 C 176.667 112.981,176.099 113.268,172.949 113.275 L 170.313 113.281 170.313 112.138 C 170.313 110.532,172.000 109.196,173.186 109.862 C 173.647 110.121,174.551 110.337,175.195 110.342 M261.849 116.342 C 261.659 117.068,261.349 117.188,259.660 117.188 C 256.777 117.188,253.162 121.206,255.305 122.029 C 258.014 123.068,268.555 121.693,268.555 120.300 C 268.555 119.409,268.383 119.321,266.291 119.135 C 264.024 118.933,263.300 118.451,263.287 117.138 C 263.277 115.997,262.108 115.351,261.849 116.342 M280.469 136.906 C 280.469 137.508,281.813 141.277,282.268 141.949 C 284.023 144.543,292.188 147.545,292.188 145.596 C 292.188 145.415,292.012 145.375,291.797 145.508 C 291.559 145.655,291.406 145.071,291.406 144.012 C 291.406 141.971,289.562 141.129,287.799 142.364 C 285.697 143.836,284.519 143.142,282.622 139.314 C 281.627 137.307,280.469 136.011,280.469 136.906 M109.375 138.281 C 109.375 138.736,109.240 139.025,109.075 138.923 C 108.910 138.821,108.843 139.449,108.925 140.319 C 109.017 141.274,108.927 141.807,108.698 141.666 C 108.466 141.522,108.384 142.216,108.485 143.470 C 108.582 144.661,108.511 145.312,108.316 145.036 C 108.124 144.764,108.020 146.260,108.071 148.551 C 108.130 151.193,108.052 152.144,107.837 151.367 L 107.514 150.195 107.468 151.660 C 107.443 152.466,107.593 153.125,107.803 153.125 C 108.050 153.125,108.050 153.476,107.803 154.127 C 107.593 154.678,107.439 156.040,107.461 157.154 C 107.490 158.666,107.571 158.932,107.781 158.203 C 107.964 157.568,108.160 158.737,108.344 161.547 C 108.499 163.923,108.515 166.208,108.378 166.625 C 108.170 167.259,108.203 167.287,108.580 166.797 C 108.938 166.332,109.004 166.547,108.903 167.838 C 108.830 168.767,108.930 169.370,109.136 169.242 C 109.348 169.111,109.396 169.646,109.252 170.545 C 109.110 171.426,109.146 171.848,109.336 171.543 C 109.557 171.189,109.754 171.607,109.934 172.811 C 110.083 173.799,110.078 174.811,109.924 175.059 C 109.740 175.358,109.817 175.405,110.153 175.198 C 110.535 174.962,110.612 175.137,110.465 175.907 C 110.345 176.533,110.421 176.836,110.660 176.688 C 110.908 176.535,110.953 176.838,110.784 177.514 C 110.588 178.292,110.642 178.503,110.983 178.292 C 111.312 178.089,111.386 178.254,111.231 178.846 C 111.110 179.309,111.148 179.603,111.317 179.499 C 111.712 179.255,112.187 181.590,111.852 182.132 C 111.693 182.390,111.789 182.425,112.111 182.226 C 112.492 181.990,112.567 182.124,112.403 182.752 C 112.260 183.297,112.331 183.503,112.603 183.335 C 112.869 183.170,112.932 183.314,112.774 183.725 C 112.637 184.083,112.713 184.375,112.945 184.375 C 113.176 184.375,113.264 184.639,113.140 184.961 C 113.016 185.283,113.104 185.547,113.335 185.547 C 113.566 185.547,113.651 185.820,113.523 186.153 C 113.389 186.501,113.455 186.658,113.676 186.521 C 114.033 186.301,114.218 186.945,114.163 188.210 C 114.151 188.493,114.243 188.621,114.368 188.496 C 114.711 188.153,115.660 190.642,115.367 191.116 C 115.207 191.375,115.305 191.409,115.631 191.207 C 116.019 190.968,116.078 191.072,115.866 191.623 C 115.711 192.028,115.702 192.241,115.846 192.097 C 116.116 191.827,119.231 197.870,119.257 198.713 C 119.264 198.972,119.405 199.102,119.568 199.001 C 119.817 198.847,120.547 200.381,120.370 200.684 C 120.338 200.737,120.670 201.139,121.108 201.577 C 121.546 202.014,121.782 202.569,121.634 202.809 C 121.469 203.074,121.540 203.136,121.815 202.967 C 122.224 202.714,122.447 203.201,122.302 204.033 C 122.271 204.210,122.426 204.244,122.647 204.108 C 123.013 203.881,123.222 204.407,123.083 205.205 C 123.053 205.382,123.208 205.415,123.428 205.279 C 123.794 205.053,124.003 205.579,123.865 206.377 C 123.834 206.554,123.989 206.587,124.209 206.451 C 124.575 206.225,124.785 206.751,124.646 207.549 C 124.615 207.726,124.752 207.771,124.949 207.648 C 125.311 207.425,125.967 208.511,125.834 209.111 C 125.794 209.288,125.933 209.327,126.143 209.198 C 126.535 208.955,127.582 210.490,127.417 211.064 C 127.366 211.241,127.496 211.280,127.705 211.151 C 128.069 210.926,129.039 212.267,129.105 213.086 C 129.123 213.301,129.332 213.438,129.571 213.391 C 129.983 213.310,132.288 215.995,132.159 216.406 C 132.051 216.752,132.891 217.575,133.174 217.401 C 133.516 217.190,137.695 221.485,137.695 222.047 C 137.695 222.275,137.871 222.463,138.086 222.466 C 138.752 222.476,140.997 224.324,140.776 224.681 C 140.661 224.867,140.712 224.978,140.889 224.927 C 141.463 224.761,142.998 225.809,142.755 226.201 C 142.626 226.411,142.665 226.550,142.842 226.510 C 143.442 226.377,144.528 227.033,144.305 227.394 C 144.183 227.592,144.227 227.721,144.405 227.682 C 145.005 227.548,146.091 228.205,145.867 228.566 C 145.745 228.764,145.790 228.900,145.967 228.870 C 146.799 228.725,147.286 228.948,147.033 229.357 C 146.879 229.606,146.924 229.703,147.134 229.574 C 147.583 229.296,150.875 231.387,150.588 231.769 C 150.479 231.913,150.501 231.950,150.635 231.852 C 151.017 231.571,153.125 232.779,153.125 233.278 C 153.125 233.523,153.241 233.608,153.382 233.467 C 153.523 233.326,153.856 233.390,154.120 233.609 C 154.493 233.919,154.484 233.391,154.079 231.270 C 153.792 229.763,153.436 227.033,153.288 225.203 C 153.139 223.373,152.910 221.875,152.778 221.875 C 152.647 221.875,152.539 220.046,152.539 217.811 C 152.539 215.575,152.687 213.838,152.867 213.949 C 153.047 214.060,153.135 212.087,153.062 209.563 L 152.930 204.975 151.367 203.669 C 150.508 202.950,148.855 201.611,147.695 200.693 C 146.165 199.482,145.196 198.273,144.167 196.289 C 143.386 194.785,141.728 191.885,140.482 189.844 C 137.542 185.027,137.467 182.733,140.105 178.296 C 141.943 175.203,142.808 172.229,142.433 170.283 C 141.999 168.025,141.797 167.892,139.571 168.406 C 136.775 169.052,135.010 168.153,133.344 165.234 C 130.571 160.379,129.221 159.418,120.898 156.382 C 115.439 154.390,114.290 153.463,113.582 150.484 C 113.315 149.358,112.993 148.438,112.866 148.438 C 112.739 148.438,112.712 147.916,112.805 147.279 C 113.080 145.409,112.151 141.066,111.131 139.450 C 109.954 137.586,109.375 137.201,109.375 138.281 M262.500 139.782 C 262.500 140.231,262.852 140.786,263.281 141.016 C 263.711 141.246,264.063 141.830,264.063 142.314 C 264.063 143.887,266.717 149.632,268.991 152.980 C 271.891 157.250,272.632 157.419,271.069 153.453 C 270.626 152.328,270.096 150.520,269.893 149.434 C 269.635 148.063,269.228 147.244,268.559 146.751 C 268.030 146.361,267.057 145.043,266.399 143.822 C 264.532 140.361,262.500 138.255,262.500 139.782 M143.750 149.073 C 145.098 149.711,146.552 150.087,147.652 150.079 C 149.937 150.064,151.636 150.801,152.672 152.256 C 154.582 154.938,151.309 154.567,146.682 151.576 C 144.177 149.957,142.430 149.126,140.234 148.510 L 138.867 148.127 140.234 148.091 C 140.986 148.071,142.568 148.513,143.750 149.073 M181.731 342.578 C 181.731 343.330,181.812 343.638,181.910 343.262 C 182.008 342.886,182.008 342.271,181.910 341.895 C 181.812 341.519,181.731 341.826,181.731 342.578 " stroke="none" fill="#a4eaf2" fill-rule="evenodd"></path><path id="path4" d="M196.001 56.136 C 196.487 56.229,197.190 56.226,197.563 56.128 C 197.937 56.030,197.539 55.954,196.680 55.958 C 195.820 55.962,195.515 56.042,196.001 56.136 M196.601 62.401 C 198.492 62.472,201.480 62.472,203.242 62.400 C 205.004 62.327,203.457 62.269,199.805 62.269 C 196.152 62.270,194.711 62.329,196.601 62.401 M189.753 62.783 C 190.455 62.870,191.510 62.868,192.097 62.779 C 192.684 62.690,192.109 62.619,190.820 62.621 C 189.531 62.623,189.051 62.696,189.753 62.783 M207.715 62.776 C 208.198 62.869,208.989 62.869,209.473 62.776 C 209.956 62.683,209.561 62.606,208.594 62.606 C 207.627 62.606,207.231 62.683,207.715 62.776 M181.391 63.846 C 177.205 64.715,174.519 65.489,177.344 65.011 C 182.049 64.215,187.901 62.953,186.914 62.948 C 186.270 62.945,183.784 63.348,181.391 63.846 M212.305 63.251 C 214.819 63.773,217.950 64.091,216.729 63.700 C 216.155 63.516,214.573 63.266,213.214 63.146 C 211.339 62.980,211.119 63.005,212.305 63.251 M224.805 65.966 C 227.598 66.774,230.322 67.564,230.859 67.721 C 231.547 67.922,231.662 67.895,231.249 67.632 C 230.505 67.156,221.125 64.446,220.325 64.475 C 219.996 64.486,222.012 65.157,224.805 65.966 M173.438 65.820 C 172.686 66.110,172.334 66.347,172.656 66.347 C 172.979 66.347,173.857 66.110,174.609 65.820 C 175.361 65.531,175.713 65.294,175.391 65.294 C 175.068 65.294,174.189 65.531,173.438 65.820 M166.211 68.316 C 156.732 72.120,143.471 80.068,140.039 84.003 C 139.609 84.496,140.664 83.796,142.383 82.447 C 149.555 76.821,158.441 71.713,166.211 68.748 C 171.987 66.545,172.178 66.461,171.484 66.447 C 171.162 66.440,168.789 67.281,166.211 68.316 M232.813 68.421 C 247.220 75.160,253.441 79.049,260.449 85.694 C 262.007 87.172,263.281 88.259,263.281 88.110 C 263.281 85.301,239.509 69.761,232.813 68.193 L 231.836 67.965 232.813 68.421 M108.774 139.243 C 108.623 140.452,108.584 141.526,108.687 141.630 C 108.790 141.733,108.992 140.821,109.135 139.603 C 109.278 138.386,109.317 137.312,109.222 137.217 C 109.127 137.121,108.925 138.033,108.774 139.243 M108.310 143.750 C 108.310 144.717,108.386 145.112,108.479 144.629 C 108.572 144.146,108.572 143.354,108.479 142.871 C 108.386 142.388,108.310 142.783,108.310 143.750 M291.513 144.141 C 291.513 145.107,291.589 145.503,291.682 145.020 C 291.775 144.536,291.775 143.745,291.682 143.262 C 291.589 142.778,291.513 143.174,291.513 144.141 M107.951 149.023 C 107.950 150.957,108.016 151.797,108.098 150.891 C 108.180 149.984,108.181 148.402,108.100 147.375 C 108.019 146.348,107.952 147.090,107.951 149.023 M291.881 153.125 C 291.832 156.455,291.712 160.410,291.616 161.914 L 291.440 164.648 291.823 161.914 C 292.034 160.410,292.153 156.455,292.088 153.125 L 291.971 147.070 291.881 153.125 M298.138 156.250 C 298.138 157.002,298.218 157.310,298.316 156.934 C 298.414 156.558,298.414 155.942,298.316 155.566 C 298.218 155.190,298.138 155.498,298.138 156.250 M108.029 161.328 C 108.189 165.533,108.891 170.421,110.008 175.116 C 111.028 179.403,111.003 177.889,109.974 173.023 C 109.454 170.566,108.841 166.621,108.613 164.258 C 107.954 157.422,107.862 156.964,108.029 161.328 M291.114 166.211 C 291.118 167.070,291.198 167.376,291.292 166.890 C 291.385 166.404,291.382 165.701,291.284 165.327 C 291.186 164.954,291.110 165.352,291.114 166.211 M290.447 169.744 C 290.298 170.741,290.256 171.636,290.353 171.734 C 290.451 171.831,290.653 171.096,290.803 170.099 C 290.952 169.103,290.994 168.208,290.897 168.110 C 290.799 168.013,290.597 168.748,290.447 169.744 M289.670 173.655 C 289.523 174.438,289.481 175.158,289.576 175.253 C 289.672 175.349,289.870 174.786,290.017 174.002 C 290.164 173.218,290.207 172.498,290.111 172.403 C 290.016 172.307,289.817 172.871,289.670 173.655 M288.655 177.832 C 287.922 180.931,285.257 188.501,283.752 191.761 C 283.017 193.353,282.500 194.739,282.603 194.843 C 282.706 194.946,282.955 194.610,283.155 194.097 C 283.355 193.584,284.049 191.993,284.696 190.562 C 285.879 187.949,288.752 179.422,289.249 177.051 C 289.689 174.950,289.178 175.623,288.655 177.832 M110.969 178.377 C 110.925 179.000,112.521 184.094,112.703 183.911 C 112.785 183.830,112.435 182.450,111.926 180.846 C 111.417 179.242,110.987 178.131,110.969 178.377 M113.478 186.328 C 114.338 189.189,119.987 200.781,120.522 200.781 C 120.616 200.781,119.830 199.155,118.776 197.168 C 117.721 195.181,116.118 191.797,115.213 189.648 C 113.555 185.711,112.937 184.528,113.478 186.328 M120.911 201.563 C 126.589 211.881,140.851 226.282,151.172 232.120 C 154.175 233.819,153.553 233.289,149.219 230.456 C 139.543 224.132,130.152 214.851,123.735 205.273 C 121.541 201.998,120.131 200.145,120.911 201.563 M270.814 212.816 C 263.995 221.615,253.423 229.922,241.602 235.770 C 238.379 237.364,235.918 238.669,236.133 238.670 C 238.079 238.677,250.155 231.813,256.445 227.124 C 262.421 222.670,274.830 210.092,273.170 210.172 C 272.995 210.180,271.935 211.370,270.814 212.816 M162.891 238.055 C 164.265 238.793,171.053 241.296,172.461 241.584 C 173.105 241.716,171.787 241.142,169.531 240.309 C 167.275 239.476,164.749 238.504,163.917 238.147 C 162.111 237.374,161.523 237.321,162.891 238.055 M231.858 239.897 C 230.151 240.535,226.548 241.651,223.850 242.376 C 221.152 243.101,219.223 243.707,219.562 243.722 C 221.054 243.789,234.740 239.609,235.493 238.856 C 235.866 238.483,234.887 238.763,231.858 239.897 M174.609 242.240 C 176.338 242.936,183.703 244.569,184.342 244.397 C 184.788 244.278,184.742 244.217,184.180 244.181 C 183.750 244.153,181.300 243.606,178.735 242.964 C 173.836 241.738,172.999 241.591,174.609 242.240 M211.523 244.732 C 209.805 244.997,209.014 245.225,209.766 245.239 C 210.518 245.252,212.451 245.033,214.063 244.751 C 217.769 244.103,215.703 244.088,211.523 244.732 M186.523 244.944 C 187.383 245.122,188.613 245.256,189.258 245.241 C 190.137 245.221,189.990 245.136,188.672 244.902 C 186.315 244.483,184.467 244.519,186.523 244.944 M192.491 245.599 C 193.410 245.682,194.816 245.680,195.616 245.596 C 196.416 245.513,195.664 245.445,193.945 245.446 C 192.227 245.448,191.572 245.517,192.491 245.599 M203.418 245.599 C 204.331 245.681,205.825 245.681,206.738 245.599 C 207.651 245.516,206.904 245.449,205.078 245.449 C 203.252 245.449,202.505 245.516,203.418 245.599 M206.747 271.094 C 206.747 272.061,206.823 272.456,206.916 271.973 C 207.009 271.489,207.009 270.698,206.916 270.215 C 206.823 269.731,206.747 270.127,206.747 271.094 M151.684 273.242 C 151.686 274.531,151.759 275.012,151.846 274.309 C 151.933 273.607,151.931 272.553,151.842 271.966 C 151.752 271.379,151.681 271.953,151.684 273.242 M130.376 319.026 C 130.862 319.120,131.565 319.116,131.938 319.018 C 132.312 318.921,131.914 318.844,131.055 318.849 C 130.195 318.853,129.890 318.933,130.376 319.026 M181.809 331.055 C 181.809 336.211,181.865 338.266,181.933 335.622 C 182.000 332.978,182.000 328.759,181.932 326.247 C 181.864 323.735,181.809 325.898,181.809 331.055 M198.569 332.031 C 198.569 333.643,198.638 334.302,198.722 333.496 C 198.806 332.690,198.806 331.372,198.722 330.566 C 198.638 329.761,198.569 330.420,198.569 332.031 M188.443 337.695 C 188.443 341.563,188.502 343.092,188.573 341.094 C 188.644 339.095,188.643 335.931,188.572 334.062 C 188.500 332.193,188.442 333.828,188.443 337.695 M198.549 342.383 C 198.552 343.457,198.628 343.850,198.718 343.256 C 198.808 342.663,198.805 341.784,198.712 341.303 C 198.620 340.823,198.546 341.309,198.549 342.383 " stroke="none" fill="#caeded" fill-rule="evenodd"></path></g></svg>